<svg width="60" height="60" viewBox="0 0 60 60" fill="none" xmlns="http://www.w3.org/2000/svg">
<g id="bx:sad">
<path id="Vector" d="M30 5C16.215 5 5 16.215 5 30C5 43.785 16.215 55 30 55C43.785 55 55 43.785 55 30C55 16.215 43.785 5 30 5ZM30 50C18.9725 50 10 41.0275 10 30C10 18.9725 18.9725 10 30 10C41.0275 10 50 18.9725 50 30C50 41.0275 41.0275 50 30 50Z" fill="#858584"/>
<path id="Vector_2" d="M21.25 30C23.3211 30 25 28.3211 25 26.25C25 24.1789 23.3211 22.5 21.25 22.5C19.1789 22.5 17.5 24.1789 17.5 26.25C17.5 28.3211 19.1789 30 21.25 30Z" fill="#858584"/>
<path id="Vector_3" d="M38.7325 29.965C40.7939 29.965 42.465 28.2939 42.465 26.2325C42.465 24.1711 40.7939 22.5 38.7325 22.5C36.6711 22.5 35 24.1711 35 26.2325C35 28.2939 36.6711 29.965 38.7325 29.965Z" fill="#858584"/>
<path id="Vector_4" d="M30 35C22.5 35 20 42.5 20 42.5H40C40 42.5 37.5 35 30 35Z" fill="#858584"/>
</g>
</svg>
