<svg width="60" height="60" viewBox="0 0 60 60" fill="none" xmlns="http://www.w3.org/2000/svg">
<g id="gravity-ui:face-neutral">
<path id="Vector" fill-rule="evenodd" clip-rule="evenodd" d="M50.625 30C50.625 35.4701 48.452 40.7161 44.5841 44.5841C40.7161 48.452 35.4701 50.625 30 50.625C24.5299 50.625 19.2839 48.452 15.4159 44.5841C11.548 40.7161 9.375 35.4701 9.375 30C9.375 24.5299 11.548 19.2839 15.4159 15.4159C19.2839 11.548 24.5299 9.375 30 9.375C35.4701 9.375 40.7161 11.548 44.5841 15.4159C48.452 19.2839 50.625 24.5299 50.625 30ZM56.25 30C56.25 36.9619 53.4844 43.6387 48.5616 48.5616C43.6387 53.4844 36.9619 56.25 30 56.25C23.0381 56.25 16.3613 53.4844 11.4384 48.5616C6.51562 43.6387 3.75 36.9619 3.75 30C3.75 23.0381 6.51562 16.3613 11.4384 11.4384C16.3613 6.51562 23.0381 3.75 30 3.75C36.9619 3.75 43.6387 6.51562 48.5616 11.4384C53.4844 16.3613 56.25 23.0381 56.25 30ZM37.5 41.25C38.2459 41.25 38.9613 40.9537 39.4887 40.4262C40.0162 39.8988 40.3125 39.1834 40.3125 38.4375C40.3125 37.6916 40.0162 36.9762 39.4887 36.4488C38.9613 35.9213 38.2459 35.625 37.5 35.625H22.5C21.7541 35.625 21.0387 35.9213 20.5113 36.4488C19.9838 36.9762 19.6875 37.6916 19.6875 38.4375C19.6875 39.1834 19.9838 39.8988 20.5113 40.4262C21.0387 40.9537 21.7541 41.25 22.5 41.25H37.5ZM37.5 30C36.7541 30 36.0387 29.7037 35.5113 29.1762C34.9838 28.6488 34.6875 27.9334 34.6875 27.1875V23.4375C34.6875 22.6916 34.9838 21.9762 35.5113 21.4488C36.0387 20.9213 36.7541 20.625 37.5 20.625C38.2459 20.625 38.9613 20.9213 39.4887 21.4488C40.0162 21.9762 40.3125 22.6916 40.3125 23.4375V27.1875C40.3125 27.9334 40.0162 28.6488 39.4887 29.1762C38.9613 29.7037 38.2459 30 37.5 30ZM19.6875 27.1875C19.6875 27.9334 19.9838 28.6488 20.5113 29.1762C21.0387 29.7037 21.7541 30 22.5 30C23.2459 30 23.9613 29.7037 24.4887 29.1762C25.0162 28.6488 25.3125 27.9334 25.3125 27.1875V23.4375C25.3125 22.6916 25.0162 21.9762 24.4887 21.4488C23.9613 20.9213 23.2459 20.625 22.5 20.625C21.7541 20.625 21.0387 20.9213 20.5113 21.4488C19.9838 21.9762 19.6875 22.6916 19.6875 23.4375V27.1875Z" fill="#858584"/>
</g>
</svg>
