<svg width="45" height="45" viewBox="0 0 45 45" fill="none" xmlns="http://www.w3.org/2000/svg">
<g id="ri:walk-fill">
<path id="Vector" d="M14.2818 16.335L20.2912 11.97C20.9661 11.477 21.7864 11.2236 22.6218 11.25C23.6406 11.2765 24.6259 11.6192 25.4412 12.2306C26.2566 12.8421 26.8616 13.6919 27.1724 14.6625C27.5212 15.7563 27.8399 16.4944 28.1287 16.8769C29.0017 18.0404 30.1336 18.9847 31.4346 19.6353C32.7357 20.2858 34.1703 20.6246 35.6249 20.625V24.375C33.689 24.3763 31.7768 23.9487 30.0259 23.123C28.2749 22.2973 26.7286 21.0939 25.498 19.5994L24.1893 27.0169L28.0537 30.2588L32.2218 41.7113L28.6968 42.9938L24.8737 32.4863L18.5174 27.1519C17.9955 26.7309 17.5959 26.1776 17.3605 25.5497C17.125 24.9218 17.0622 24.2423 17.1787 23.5819L18.133 18.1725L16.8637 19.095L12.8755 24.585L9.8418 22.38L14.2499 16.3125L14.2818 16.335ZM25.3124 10.3125C24.3179 10.3125 23.364 9.91741 22.6608 9.21415C21.9575 8.51089 21.5624 7.55706 21.5624 6.5625C21.5624 5.56794 21.9575 4.61411 22.6608 3.91085C23.364 3.20759 24.3179 2.8125 25.3124 2.8125C26.307 2.8125 27.2608 3.20759 27.9641 3.91085C28.6673 4.61411 29.0624 5.56794 29.0624 6.5625C29.0624 7.55706 28.6673 8.51089 27.9641 9.21415C27.2608 9.91741 26.307 10.3125 25.3124 10.3125ZM19.7437 35.0269L13.7174 42.2081L10.8449 39.7987L16.423 33.15L17.8218 29.0625L21.1799 31.875L19.7437 35.0269Z" fill="#FB6514"/>
</g>
</svg>
