<svg width="207" height="263" viewBox="0 0 207 263" fill="none" xmlns="http://www.w3.org/2000/svg">
<path d="M134.47 49.2058C151.535 49.2058 164.801 38.2037 164.801 24.6367C164.801 11.0697 151.535 0.0625 134.47 0.0625C117.405 0.0625 103.045 11.0646 103.045 24.6316C103.045 38.1986 117.405 49.2058 134.47 49.2058ZM47.9921 197.527C45.8992 201.686 42.8417 205.462 38.8156 208.529L6.62378 234.188C2.59964 237.386 0.587891 241.591 0.587891 245.799C0.589629 258.655 15.356 262.187 21.1903 262.187C26.4618 262.187 31.732 260.588 35.7568 257.388L73.9826 226.936C77.9269 223.864 80.9825 220.091 83.1591 215.934L91.8526 198.661C56.2027 167.825 66.9054 177.291 61.2707 171.148L47.9921 197.527ZM206.659 140.289C206.659 134.263 202.543 128.437 195.344 125.575L180.379 119.493L174.074 104.452C170.499 95.8507 152.798 65.5988 107.81 65.5988C84.8978 65.5988 72.1086 70.8311 48.1918 78.531C34.3079 82.9493 22.9612 91.3967 16.1995 102.148L11.9365 109.111C10.4618 111.466 9.75989 113.974 9.75989 116.432C9.75989 125.263 18.6337 132.799 30.1285 132.799C37.5985 132.799 44.7981 129.494 48.3978 123.773L52.7433 116.8C54.9972 113.216 58.6987 110.401 63.3687 108.926L80.5704 103.377L70.8465 134.453C70.0093 137.064 69.6229 139.777 69.6229 142.388C69.6229 150.472 73.4133 158.407 80.4416 164.525L118.989 198.064C123.658 202.096 126.955 206.962 128.565 212.204L140.395 249.777C142.719 257.175 151.143 262.167 160.383 262.167C172.818 262.167 180.997 253.909 180.997 245.759C180.997 244.463 180.8 243.149 180.389 241.841L166.061 196.271C164.371 190.957 161.072 186.027 156.485 182.059L127.191 156.584L138.216 121.448L141.756 129.895C145.218 138.153 152.543 144.937 162.196 148.843L177.162 154.859C180.087 156.031 183.196 156.586 186.261 156.586C196.871 156.621 206.659 149.812 206.659 140.289Z" fill="#F3F3F3"/>
</svg>
